HIERARCHY
ROOT hip
{
  OFFSET 0.0 0.0 0.0
  CHANNELS 6 Xposition Yposition Zposition Zrotation Yrotation Xrotation
  JOINT torso
  {
    OFFSET 0.0 0.0 0.0
    CHANNELS 3 Zrotation Xrotation Yrotation
    JOINT neck
    {
      OFFSET -8.059630999999968 325.56260699999996 64.6221310000002
      CHANNELS 3 Zrotation Xrotation Yrotation
      JOINT head
      {
        OFFSET 34.685424000000125 375.1179809999999 232.79357900000002
        CHANNELS 3 Zrotation Xrotation Yrotation
        End Site
        {
          OFFSET 0.0 0.0 0.0
        }
      }
    }
    JOINT left_collar
    {
      OFFSET -8.059630999999968 325.56260699999996 64.6221310000002
      CHANNELS 3 Zrotation Xrotation Yrotation
      JOINT left_upper_arm
      {
        OFFSET -124.124665 -15.370300999999927 25.582641999999964
        CHANNELS 3 Zrotation Xrotation Yrotation
        JOINT left_forearm
        {
          OFFSET -268.19913399999996 105.06054699999993 114.74548300000004
          CHANNELS 3 Zrotation Xrotation Yrotation
          JOINT left_hand
          {
            OFFSET -235.82003099999991 -10.198180999999977 -38.67455999999993
            CHANNELS 3 Zrotation Xrotation Yrotation
            End Site
            {
              OFFSET 0.0 0.0 0.0
            }
          }
        }
      }
    }
    JOINT right_collar
    {
      OFFSET -8.059630999999968 325.56260699999996 64.6221310000002
      CHANNELS 3 Zrotation Xrotation Yrotation
      JOINT right_upper_arm
      {
        OFFSET 162.73931899999997 -2.8598030000000563 26.244994999999903
        CHANNELS 3 Zrotation Xrotation Yrotation
        JOINT right_forearm
        {
          OFFSET 284.6506340000001 103.07031299999994 145.84521499999994
          CHANNELS 3 Zrotation Xrotation Yrotation
          JOINT right_hand
          {
            OFFSET 226.332337 -12.198241999999937 -49.27258299999994
            CHANNELS 3 Zrotation Xrotation Yrotation
            End Site
            {
              OFFSET 0.0 0.0 0.0
            }
          }
        }
      }
    }
  }
}
MOTION
Frames: 19
Frame Time: 0.01
358.5497318209297 203.05320089390656 381.02398376781076 -7.498947436147014 0.33121571206376527 8.029543277697355 0.6481245578037623 -3.512302351106511 -0.23410741372755575 4.899627087277144 -3.098554051092067 -2.829254597809559 0.0 0.0 0.0 2.370995474551431 0.45047137560703493 0.2712584961667327 39.31625971819908 15.857767850866777 -26.59556944732755 6.295708314083787 4.353380151527518 -54.056579075360226 0.0 0.0 0.0 -1.3047007446753327 0.03419310880881143 -6.069781587588246 -26.921133172789414 10.573594833842883 32.67313847168411 -7.366405359618239 5.242384181200097 57.67812956089407 0.0 0.0 0.0
358.4924771240064 203.03762871103044 378.7147647266981 -7.48784422427173 0.2938817282546305 7.945171997997055 0.6550015908221931 -3.5172784448896 -0.23582324478968647 4.844009985658989 -3.064179099084378 -2.796247335963422 0.0 0.0 0.0 2.3512549994155587 0.43236793068171725 0.3679536662459996 39.17466006118731 15.776797418904717 -27.06503765690845 5.933581216920051 4.215331899180228 -53.84968829244432 0.0 0.0 0.0 -1.2986176517821202 0.032981777052577634 -6.089166622209074 -26.829013454368713 10.440169609966707 33.28135454942841 -6.966694290566255 5.0880859803174205 57.39996641818961 0.0 0.0 0.0
358.41996283168936 203.01156761137793 376.4031424682124 -7.469495145331352 0.25420201814238946 7.8552386941289285 0.6618370531486741 -3.5203016114253454 -0.23747164219298703 4.7863253298299755 -3.0253017445536243 -2.7622403052097497 0.0 0.0 0.0 2.3300882704535475 0.4140059561878852 0.46471436496102536 39.0311581503573 15.692964571764822 -27.534320178614777 5.571168101077997 4.078858061777607 -53.64416360035502 0.0 0.0 0.0 -1.2930478170865323 0.0318100021409763 -6.109159931737949 -26.741232790873134 10.308743255819913 33.88438497315842 -6.567541060472372 4.935854630945465 57.11885865115388 0.0 0.0 0.0
358.3312147416663 202.97373535067 374.08761259921584 -7.443606452136549 0.21170486571717065 7.759930668602228 0.6684404237054834 -3.5211372084992667 -0.23900180071216637 4.726766214126784 -2.9816405310953327 -2.727379320372227 0.0 0.0 0.0 2.307472745726157 0.39544287807698264 0.5611396664460497 38.885048193880216 15.605741618018186 -28.003007702295747 5.208121580478875 3.9439061574058 -53.44079002027407 0.0 0.0 0.0 -1.2880910909620569 0.03068324703279316 -6.129936602170523 -26.657510448268482 10.179218014387127 34.481945565960025 -6.1683515179806285 4.7855839674100915 56.83521213028173 0.0 0.0 0.0
358.22495000233886 202.92295933151638 371.76623823611783 -7.409879710072473 0.16603321340293256 7.659484495259485 0.6746195610456724 -3.51957029937695 -0.2403630982854726 4.665558231435457 -2.932990898105998 -2.6918263142129426 0.0 0.0 0.0 2.283399080720288 0.37674492732793236 0.6567837008217705 38.73563357325493 15.514590677110979 -28.47062633259987 4.8442066310385 3.810448323238622 -53.24032746927884 0.0 0.0 0.0 -1.2838527065860856 0.02960669996015678 -6.151699092714474 -26.577575911835094 10.051518488390617 35.0735324387525 -5.768715968582923 4.63722803904212 56.54949151280876 0.0 0.0 0.0
358.0995829792858 202.8582196342303 369.4366669721303 -7.3680153548945855 0.11695479700256105 7.554177221845218 0.6801826117697212 -3.515410056652488 -0.24150571082815508 4.602952700525801 -2.87923375598825 -2.655754306636519 0.0 0.0 0.0 2.2578735088267083 0.3579855782011267 0.7511685632880073 38.582241644503064 15.418974677772052 -28.936646295788023 4.479305094992746 3.678480974008875 -53.043499961917696 0.0 0.0 0.0 -1.2804384626064966 0.028585209474881815 -6.174660929857969 -26.50117589534533 9.925602118611874 35.65840878821046 -5.3684277264161935 4.490803113856308 56.26222422120559 0.0 0.0 0.0
357.9532418709965 202.77869067213513 367.0961607619989 -7.317717612129178 0.06437020552913406 7.444313426739437 0.6849405986855567 -3.508494836060193 -0.24238140860191562 4.539218913577816 -2.8203425153028783 -2.6193418176137415 0.0 0.0 0.0 2.23092003186224 0.339243549255383 0.8438000255832295 38.42423845957552 15.318368876174826 -29.400489560427985 4.113418468767525 3.548024249850808 -52.85098605943687 0.0 0.0 0.0 -1.2779495309132805 0.027623251804998764 -6.1990277599731 -26.428080844773053 9.801468769222167 36.23560124032819 -4.967495996384408 4.346387267511745 55.974000990504614 0.0 0.0 0.0
357.7837957279419 202.68378025984134 364.7416386370301 -7.258700845204185 0.008318447323924973 7.330208727629302 0.6887107354736739 -3.4986976651274664 -0.2429445341377953 4.47463567943309 -2.7563882555225176 -2.582766929248294 0.0 0.0 0.0 2.2025823412634353 0.3206004385507048 0.9341855392809465 38.26104327802741 15.212272827771043 -29.861536235377812 3.7466688831431796 3.4191212533000503 -52.66341061764909 0.0 0.0 0.0 -1.2764770706143747 0.0267249292962567 -6.224976602283421 -26.358090581266143 9.679168824085345 36.80390654070688 -4.5661525668758705 4.204117624667517 55.68547270946083 0.0 0.0 0.0
357.5888910184438 202.57316483405393 362.36973201790363 -7.190697288014636 -0.05102041530984284 7.212170610085581 0.6913204294628587 -3.485931790475841 -0.24315313802901192 4.409482479386015 -2.6875427631458257 -2.5462012284408897 0.0 0.0 0.0 2.172925396876845 0.3021380835740488 1.0218538988525752 38.092142697171155 15.10022270963418 -30.3191298856671 3.3792981515910636 3.2918370506625445 -52.48133775683525 0.0 0.0 0.0 -1.276096847840342 0.025893997945231 -6.252634303125792 -26.291038719991167 9.558809186159444 37.3619089490227 -4.164851985229318 4.064185419993846 55.39734343957036 0.0 0.0 0.0
357.3659964556388 202.44681955220864 359.9768521840818 -7.113466003722974 -0.11332598375986092 7.090477687512442 0.6926118532292285 -3.4701558542546507 -0.24297022715797434 4.3440305875268415 -2.6140792278132334 -2.509803881785005 0.0 0.0 0.0 2.142036588940609 0.2839357515419118 1.1063758197902784 37.91710417795995 14.981803838716647 -30.772582149501535 3.0116647384205404 3.166257396322446 -52.30526488912898 0.0 0.0 0.0 -1.2768640753125327 0.02513392122013532 -6.282056319292784 -26.226795539815818 9.440556617618563 37.90800818475691 -3.7642650971603553 3.926829137874046 55.11035966960145 0.0 0.0 0.0
357.1124544805148 202.30504202174245 357.5592691864652 -7.0268028138361345 -0.17814196205155103 6.965358692213387 0.6924469051390575 -3.451378229836441 -0.24236506417539158 4.278534529716469 -2.5363704529959508 -2.473716104320147 0.0 0.0 0.0 2.110026396015725 0.26606727453268564 1.1873845937678909 37.73558869365942 14.856663171537647 -31.221177217954814 2.6442384935238734 3.0424871319762143 -52.135617592958646 0.0 0.0 0.0 -1.2788086943504349 0.024447946380953735 -6.313207036952898 -26.16526905102403 9.324637952756103 38.44045724806562 -3.3652660511934114 3.792326067730286 54.82529604827756 0.0 0.0 0.0
356.8255375988507 202.14846848513534 355.1132011660325 -6.93055085771558 -0.244884602781379 6.8369726191576 0.6907123345657754 -3.4296600412229474 -0.24131444667305474 4.2132242641358015 -2.4548845069158505 -2.4380562839329114 0.0 0.0 0.0 2.0770284267744996 0.24859824908675615 1.2645958896723517 37.54736218974048 14.724521510403013 -31.66417681428784 2.277593033483965 2.9206482201533404 -51.97274511856311 0.0 0.0 0.0 -1.2819313243097785 0.023839197885957907 -6.345942863569673 -26.106404101258097 9.211336848790177 38.95740895298846 -2.9689130952535683 3.660982671519992 54.54293802621789 0.0 0.0 0.0
356.50250769711005 201.9780813976438 352.6349126907352 -6.824611365612453 -0.3128553410546672 6.705391483876376 0.6873247691750604 -3.4051164149710327 -0.23980388722568977 4.148298462059868 -2.370177800207984 -2.402916014248459 0.0 0.0 0.0 2.043198708533303 0.23158342382761124 1.337825676791838 37.352305519004815 14.585185084546028 -32.10082627564932 1.9123957265610652 2.8008773926196397 -51.81691633572317 0.0 0.0 0.0 -1.2862000984513464 0.023310780123725058 -6.3799993026181365 -26.050179465457138 9.100986905397711 39.45696958880656 -2.576423717592221 3.5331241968211033 54.264062012028255 0.0 0.0 0.0
356.14067650974266 201.7952074826735 350.1208203728462 -6.708954165945665 -0.3812576832554308 6.570587086665873 0.6822353524713847 -3.3779155610518874 -0.2378286119181225 4.083919244555559 -2.282885624114183 -2.3683572679265454 0.0 0.0 0.0 2.008714082413629 0.2150643985924031 1.4070052048610906 37.15042249660732 14.438556118393294 -32.53036224450945 1.5493953437966765 2.683323421823376 -51.66831597978913 0.0 0.0 0.0 -1.2915485889058251 0.02286587929529905 -6.41498310637831 -25.996602977501713 8.993961177131059 39.937257782523865 -2.189144896221935 3.4090839794916135 53.98941378511906 0.0 0.0 0.0
355.73746556314245 201.6015055464452 347.5676036914965 -6.5836274170209546 -0.4492182948024425 6.432422976666794 0.6754336925794354 -3.348275350457515 -0.23539429802277193 4.020208680988516 -2.1937102217760494 -2.334410904262583 0.0 0.0 0.0 1.9737696006434715 0.19906774963046767 1.4721920444634862 36.94184569927408 14.2846419415834 -32.952022375032975 1.1894075384338667 2.5681440468992585 -51.527041100184306 0.0 0.0 0.0 -1.2978749947357813 0.022507852582491193 -6.450370378907527 -25.945704873473957 8.890658315921609 40.39646638257113 -1.808519406904048 3.289192863663171 53.71968599768548 0.0 0.0 0.0
355.29046415087026 201.39894360109506 344.97231861773287 -6.448766059969464 -0.5158120877429524 6.290652484978361 0.6669508414143033 -3.3164571627614077 -0.23251748202466666 3.9572472737279076 -2.1034065093827947 -2.301076646425007 0.0 0.0 0.0 1.9385748912135012 0.1836036761908477 1.5335763788305685 36.72683962771156 14.123562150148466 -33.36505734224154 0.8332983963272553 2.455502601222847 -51.393097664149245 0.0 0.0 0.0 -1.3050427247914222 0.02224029213893566 -6.485511176201144 -25.89752962263469 8.791485801292021 40.8329250365304 -1.436049286852811 3.173769126417989 53.45549564094749 0.0 0.0 0.0
354.7974841615371 201.18976519376528 342.33251132463494 -6.3045985236978614 -0.5800909321596649 6.144923274378543 0.656861058249486 -3.2827569278117243 -0.22922558520061254 3.8950745423831052 -2.0127656257701454 -2.2683245855609027 0.0 0.0 0.0 1.9033495388265966 0.16866523725410312 1.59148200183648 36.505800889330644 13.955553320727867 -33.7687452537334 0.48196637407714216 2.345564401602709 -51.266397328184226 0.0 0.0 0.0 -1.3128824528826715 0.022067052039450936 -6.519640758998113 -25.85212661426866 8.696840925287303 41.24516111017997 -1.0732576450240183 3.063109233513428 53.19736235200571 0.0 0.0 0.0
354.25661084467555 200.97644525311165 339.64632898717326 -6.15145126718681 -0.6411154032659429 5.994788378599878 0.6452821580417868 -3.2474934847493433 -0.22555652384284616 3.833691689281112 -1.922596570833314 -2.236098177332236 0.0 0.0 0.0 1.8683176152533756 0.15422821727779043 1.646361776110937 36.279255148362225 13.780970823761743 -34.162408289685615 0.13632302291654005 2.238492974885891 -51.14675446971665 0.0 0.0 0.0 -1.32119565936679 0.021992228090018617 -6.551897241483802 -25.809540137601793 8.607090375659697 41.63195669934511 -0.7216500373203839 2.957479675556379 52.94568840384253 0.0 0.0 0.0
353.6662488306118 200.7616362085974 336.9126244760656 -5.9897508235256085 -0.6979887375365257 5.839723221881955 0.6323743068643917 -3.2109946194824395 -0.22155789506150106 3.7730661886562973 -1.8337062882450943 -2.2043186001434605 0.0 0.0 0.0 1.8337015798529248 0.14025162923400872 1.6987876300449964 36.04785071070699 13.600287368745542 -34.5454310975838 -0.20272702687932065 2.134446212391416 -51.03388366490131 0.0 0.0 0.0 -1.32975959916083 0.022020083128143887 -6.581344979966354 -25.769799133506623 8.522549387028832 41.99239970887765 -0.38267658532012105 2.8571100484367413 52.70074115799782 0.0 0.0 0.0
